<svg aria-hidden="true" style="position:absolute;width:0;height:0;overflow:hidden" xmlns="http://www.w3.org/2000/svg">
  <defs>
    <symbol id="icon-add" viewBox="0 0 32 32">
      <path d="M14 30a2 2 0 0 0 4 0V18h12a2 2 0 0 0 0-4H18V2a2 2 0 0 0-4 0v12H2a2 2 0 0 0 0 4h12v12z"/>
    </symbol>
    <symbol id="icon-arrow-down" viewBox="0 0 51 32">
      <path stroke-linejoin="round" stroke-linecap="round" stroke-width="6.4" d="M25.6 25.6 6.4 6.4M44.8 6.4 25.6 25.6"/>
    </symbol>
    <symbol id="icon-check-box" viewBox="0 0 32 32">
      <path fill="none" stroke="#6c63ff" style="stroke:var(--color1, #6c63ff)" stroke-width="1.231" d="M2.462.615h27.077c1.02 0 1.846.827 1.846 1.846v27.077c0 1.02-.827 1.846-1.846 1.846H2.462a1.846 1.846 0 0 1-1.846-1.846V2.461c0-1.02.827-1.846 1.846-1.846z"/>
    </symbol>
    <symbol id="icon-checked" viewBox="0 0 32 32">
      <path fill="#6c63ff" style="fill:var(--color1, #6c63ff);stroke:var(--color1, #6c63ff)" stroke="#6c63ff" stroke-width="1.231" d="M2.462.615h27.077c1.02 0 1.846.827 1.846 1.846v27.077c0 1.02-.827 1.846-1.846 1.846H2.462a1.846 1.846 0 0 1-1.846-1.846V2.461c0-1.02.827-1.846 1.846-1.846z"/>
      <path fill="#f7f7f7" style="fill:var(--color2, #f7f7f7)" d="m13.536 22.952-1.723 1.758 1.757 1.723 1.724-1.757-1.758-1.724zm1.724-1.758-6.151-6.032-3.447 3.515 6.151 6.032 3.447-3.515zm8.284-11.963L11.779 21.228l3.515 3.447 11.765-11.997-3.515-3.447z"/>
    </symbol>
    <symbol id="icon-delete" viewBox="0 0 32 32">
      <path stroke-width="1.778" d="M6.888 13.538a2.666 2.666 0 0 1 2.659-2.871h12.907a2.666 2.666 0 0 1 2.659 2.871l-.923 12A2.667 2.667 0 0 1 21.531 28H10.47a2.667 2.667 0 0 1-2.659-2.462l-.923-12z"/>
      <path stroke-linecap="round" stroke-width="1.778" d="M26 6.667H6"/>
      <path stroke-width="1.778" d="M13.333 4c0-.736.597-1.333 1.333-1.333h2.667c.736 0 1.333.597 1.333 1.333v2.667h-5.333V4z"/>
      <path stroke-linecap="round" stroke-width="1.778" d="M18.667 16v6.667M13.333 16v6.667"/>
    </symbol>
    <symbol id="icon-edit" viewBox="0 0 32 32">
      <path stroke-linejoin="round" stroke-linecap="round" stroke-width="1.778" d="M15.418 10.651 3.555 22.513v5.931h5.931l11.863-11.862m-5.931-5.931 4.256-4.256c.585-.586.879-.879 1.217-.989.298-.097.619-.097.916 0 .338.11.631.403 1.215.987l2.58 2.58c.587.587.881.881.991 1.22.097.298.097.619 0 .916-.11.338-.403.632-.99 1.218l-4.255 4.255m-5.93-5.931 5.931 5.931"/>
    </symbol>
    <symbol id="icon-empty" viewBox="0 0 41 32">
      <path fill="#6c63ff" style="fill:var(--color1, #6c63ff)" d="M20.586 31.053c7.63-.161 13.79-1.486 13.759-2.96s-6.242-2.538-13.872-2.378c-7.63.161-13.79 1.486-13.759 2.96s6.242 2.538 13.872 2.378z"/>
      <path fill="#fff" style="fill:var(--color3, #fff)" opacity=".7" d="M20.586 31.053c7.63-.161 13.79-1.486 13.759-2.96s-6.242-2.538-13.872-2.378c-7.63.161-13.79 1.486-13.759 2.96s6.242 2.538 13.872 2.378z"/>
      <path fill="#6c63ff" style="fill:var(--color1, #6c63ff)" d="M35.848 19.481s4.357-4.104 1.963-9.552a9.369 9.369 0 0 0-3.078-3.787C31.735 3.959 24.157-.361 12.754 1.307A8.522 8.522 0 0 0 9.32 2.594C7.646 3.69 5.872 5.703 6.627 9.154c.267 1.218.207 2.491-.235 3.659-.436 1.158-1.261 2.577-2.797 4.109 0 0-3.273 3.156-.089 5.888a5.82 5.82 0 0 0 2.352 1.208c3.972 1.014 20.026 4.38 29.99-4.536z"/>
      <path fill="#fff" style="fill:var(--color3, #fff)" opacity=".7" d="M35.848 19.481s4.357-4.104 1.963-9.552a9.369 9.369 0 0 0-3.078-3.787C31.735 3.959 24.157-.361 12.754 1.307A8.522 8.522 0 0 0 9.32 2.594C7.646 3.69 5.872 5.703 6.627 9.154c.267 1.218.207 2.491-.235 3.659-.436 1.158-1.261 2.577-2.797 4.109 0 0-3.273 3.156-.089 5.888a5.82 5.82 0 0 0 2.352 1.208c3.972 1.014 20.026 4.38 29.99-4.536z"/>
      <path fill="#f1f1f1" style="fill:var(--color4, #f1f1f1)" d="M13.149 29.109s.176.196.173.269a4.75 4.75 0 0 1-.74.108c-.331.014-.832-.111-.92-.151s-.062-.151-.062-.151.272-.123.469-.122.747.038 1.08.047zM13.486 29.363s-.061-.177-.179-.26c0 0 .408-.069.592.066s-.249.179-.413.194zM15.786 28.649s.159-.187.15-.261a5.256 5.256 0 0 0-.757-.131c-.336-.025-.83.082-.915.119s-.047.149-.047.149.285.131.484.137c.198.006.75-.015 1.085-.012zM16.102 28.408s-.047.174-.157.252c0 0 .417.082.592-.047s-.267-.185-.435-.205zM8.087 28.99v-.234a.436.436 0 0 1 .183.07c.121.088-.023.137-.183.165zM10.01 28.616s.144-.201.129-.273a5.308 5.308 0 0 0-.766-.071c-.337 0-.821.149-.902.193s-.037.152-.037.152.295.108.493.097c.198-.01.749-.074 1.083-.098zM10.306 28.35s-.03.177-.136.264c0 0 .422.047.586-.094s-.282-.163-.45-.17zM18.582 29.26s.188.183.193.255a4.81 4.81 0 0 1-.73.163c-.329.038-.838-.047-.929-.082s-.074-.146-.074-.146.262-.14.458-.157.75-.016 1.082-.034zM18.937 29.489s-.074-.172-.198-.246c0 0 .401-.099.595.022s-.235.197-.398.224zM21.051 28.754s.17-.18.166-.252a5.21 5.21 0 0 0-.748-.177c-.334-.047-.833.033-.92.065s-.058.145-.058.145.277.148.474.166c.198.017.752.03 1.086.054zM21.382 28.532s-.055.171-.172.242c0 0 .412.107.593-.01s-.255-.202-.422-.232zM23.891 29.109s.175.196.173.269a4.745 4.745 0 0 1-.741.108c-.331.014-.832-.111-.92-.151s-.062-.151-.062-.151.271-.123.47-.122.747.038 1.08.047zM24.228 29.363s-.061-.177-.179-.26c0 0 .407-.069.592.066s-.25.179-.414.194zM26.383 28.959s.144-.202.129-.273a5.308 5.308 0 0 0-.766-.071c-.337.003-.82.148-.902.193s-.037.152-.037.152.295.108.492.097c.198-.01.746-.073 1.083-.097zM26.678 28.695s-.031.177-.136.264c0 0 .423.047.586-.094s-.282-.163-.45-.17zM29.183 29.281s.176.196.173.269a4.866 4.866 0 0 1-.741.108c-.331.014-.832-.111-.92-.151s-.063-.151-.063-.151.272-.123.47-.122c.198.001.747.039 1.08.047zM29.52 29.535s-.061-.178-.179-.26c0 0 .408-.069.592.066s-.25.18-.413.193zM31.562 28.826v.316c-.334.027-.794.08-.971.088-.198.01-.493-.097-.493-.097s-.047-.108.037-.152c.084-.044.563-.19.902-.193.176.001.351.014.525.037z"/>
      <path fill="#6c63ff" style="fill:var(--color1, #6c63ff)" d="M29.605 28.387a1.632 1.632 0 0 0-.094-.579c-.033-.094-1.134.322-1.241.358-.363.12-.632.33-.945.554-.148.106-.299.214-.47.275s-.376.074-.554.135-.356.198-.376.387c.379.121.789.213 1.174.108.372-.101.671-.371 1.011-.55a2.78 2.78 0 0 1 .751-.256c0 .074.004.148.006.221.193 0 .386-.028.572-.082a.158.158 0 0 0 .068-.032.155.155 0 0 0 .039-.068c.054-.151.074-.312.058-.472zM21.36 28.061c-.165 0-.338-.006-.485.069-.179.094-.282.281-.371.463a5.55 5.55 0 0 0 3.264-.38.723.723 0 0 1-.04.306c.27.028.541.036.812.026a.185.185 0 0 0 .084-.016.183.183 0 0 0 .07-.085 1.58 1.58 0 0 0 .148-.454.286.286 0 0 0-.009-.164.268.268 0 0 0-.168-.124c-.473-.167-.983.038-1.444.149a7.668 7.668 0 0 1-1.861.211z"/>
      <path fill="#f7a48b" style="fill:var(--color5, #f7a48b)" d="M19.401 17.168a32.58 32.58 0 0 0-1.398-.009.219.219 0 0 0-.156.044c-.047.049-.039.129-.02.195.089.307.452.783.819.672.379-.113.678-.53.755-.902z"/>
      <path fill="#252525" style="fill:var(--color6, #252525)" d="m16.968 16.62 1.981 1.523a.177.177 0 0 1 .071.138c.001.027-.004.053-.014.078s-.026.047-.046.065a.185.185 0 0 1-.242.006l-1.93-1.602.18-.209z"/>
      <path fill="#f9b499" style="fill:var(--color7, #f9b499)" d="M19.59 16.549c-.171.059-.407.126-.557.225s-.286-.115-.44-.161c-.165-.047-.31-.014-.479.011-.213.031-.372.141-.544.27-.173.13-.372.223-.582.274-.111.363.776.096.889.075.12-.022.207-.027.32.026.265.125.382.149.686.121.191.125.433.223.633.015.114-.119.329-.234.425-.357.055-.073.061-.023.005-.159-.07-.171-.201-.243-.355-.34z"/>
      <path fill="#f9b499" style="fill:var(--color7, #f9b499)" d="M17.797 17.21c-.119.094-.286.155-.437.221-.021.009-.039.024-.051.044s-.018.042-.016.065c.002.023.01.045.025.062s.034.03.056.036c.262.069.855-.192.798-.471a.462.462 0 0 0-.376.042z"/>
      <path fill="#f9b499" style="fill:var(--color7, #f9b499)" d="M17.586 17.572c-.059.085-.077.267 0 .346.244.252.669-.154.806-.337.275-.366-.158-.281-.369-.184a7.107 7.107 0 0 1-.437.174z"/>
      <path fill="#f9b499" style="fill:var(--color7, #f9b499)" d="M17.813 17.886c-.017.585.923.039.845-.338-.064-.304-.337.019-.432.091s-.365.125-.414.247z"/>
      <path fill="#f9b499" style="fill:var(--color7, #f9b499)" d="M18.174 18.037c.144.411.728-.059.663-.375-.027-.131-.103-.183-.223-.083-.063.053-.09.146-.145.207-.074.085-.292.139-.295.251z"/>
      <path fill="#6c63ff" style="fill:var(--color1, #6c63ff)" d="M16.885 16.892s-2.889-.264-3.836-2.582l.329-.532s2.237.137 3.658 2.882l-.151.232z"/>
      <path fill="#e5e5e5" style="fill:var(--color8, #e5e5e5)" d="M13.333 14.374s1.737.585 3.17 2.237c0 0-2.301-.453-3.17-2.237z"/>
      <path fill="#fff" style="fill:var(--color3, #fff)" opacity=".3" d="M14.326 14.182a3.495 3.495 0 0 0-.309-.129l-.209.341c.107.039.216.081.329.125l.19-.336zM14.421 14.23l-.194.328c.262.107.517.231.762.37l.101-.23a3.246 3.246 0 0 0-.669-.469zM15.183 15.046c.106.068.208.141.305.22l.076-.094a6.678 6.678 0 0 0-.292-.304l-.09.178z"/>
      <path fill="#fff" style="fill:var(--color3, #fff)" d="M20.523 17.18c-.158.083-.343.122-.501.205a4.668 4.668 0 0 0-.549-.922l.394-.231c.204.315.453.633.656.948z"/>
      <path fill="#6c63ff" style="fill:var(--color1, #6c63ff)" d="M25.651 19.388a6.428 6.428 0 0 1-4.227.566c.16-1.3-.012-2.615-.183-3.913l-.481-3.642c-.066-.501-.277-1.046-.316-1.55s.157-1.09.634-1.259c.422-.15.886.085 1.236.367 1.19.96 1.784 2.463 2.229 3.925.543 1.777.857 3.665 1.108 5.506z"/>
      <path style="fill:var(--color9, #000)" opacity=".2" d="M25.651 19.388a6.428 6.428 0 0 1-4.227.566c.16-1.3-.012-2.615-.183-3.913l-.481-3.642c-.066-.501-.277-1.046-.316-1.55s.157-1.09.634-1.259c.422-.15.886.085 1.236.367 1.19.96 1.784 2.463 2.229 3.925.543 1.777.857 3.665 1.108 5.506z"/>
      <path fill="#252525" style="fill:var(--color6, #252525)" d="M24.997 17.348a27.67 27.67 0 0 0-.623 4.78c-.022.505-.029 1.012-.09 1.514-.08.662-.25 1.312-.42 1.954-.188.719-.377 1.437-.568 2.156.379.106.765.184 1.156.234.286.039.576.044.863.015.795-.094 1.508-.575 2.305-.644-.004-1.304-.008-2.609-.08-3.912a39.499 39.499 0 0 0-.252-2.744c-.089-.697-.199-1.394-.39-2.07-.083-.293-.185-.589-.376-.829-.331-.422-1.011-.609-1.526-.456z"/>
      <path style="fill:var(--color9, #000)" opacity=".2" d="M24.997 17.348a27.67 27.67 0 0 0-.623 4.78c-.022.505-.029 1.012-.09 1.514-.08.662-.25 1.312-.42 1.954-.188.719-.377 1.437-.568 2.156.379.106.765.184 1.156.234.286.039.576.044.863.015.795-.094 1.508-.575 2.305-.644-.004-1.304-.008-2.609-.08-3.912a39.499 39.499 0 0 0-.252-2.744c-.089-.697-.199-1.394-.39-2.07-.083-.293-.185-.589-.376-.829-.331-.422-1.011-.609-1.526-.456z"/>
      <path style="fill:var(--color9, #000)" opacity=".2" d="M27.373 21.407c-.026-.235-.054-.47-.084-.703-.089-.697-.199-1.394-.39-2.07-.083-.293-.185-.589-.376-.829-.332-.422-1.012-.609-1.528-.455a27.92 27.92 0 0 0-.403 2.285c.78.792 1.741 1.367 2.78 1.772z"/>
      <path fill="#252525" style="fill:var(--color6, #252525)" d="m30.416 27.561-.914.406c-.17.075-.34.151-.516.211a3.083 3.083 0 0 1-1.328.148l-.478-1.546c-.114-.369-.228-.738-.306-1.116-.099-.478-.138-.966-.177-1.453l-.311-3.856c.986-.948 2.07-1.665 3.354-2.135.121-.047.251-.087.376-.059a7.805 7.805 0 0 1 .024 3.461c-.084.375-.194.746-.243 1.127-.08.621.003 1.251.087 1.871.127.951.304 1.99.432 2.941z"/>
      <path style="fill:var(--color9, #000)" opacity=".2" d="M30.095 21.806a7.776 7.776 0 0 0 .022-3.646c-.126-.028-.256.014-.376.059-1.284.469-2.369 1.188-3.354 2.135l.094 1.16c1.184.185 2.405.319 3.613.292z"/>
      <path fill="#252525" style="fill:var(--color6, #252525)" d="M22.753 14.59c.12.946-.034 2.023-.581 2.296s-1.183.375-1.789.456c-.239-.384-.486-.732-.726-1.117.641-.558 1.601-1.045 1.752-1.88a4.216 4.216 0 0 0-.072-1.809c.663 1.016.854.977 1.416 2.053z"/>
      <path style="fill:var(--color9, #000)" opacity=".2" d="M22.753 14.59c.12.946-.034 2.023-.581 2.296s-1.183.375-1.789.456c-.239-.384-.486-.732-.726-1.117.641-.558 1.601-1.045 1.752-1.88a4.216 4.216 0 0 0-.072-1.809c.663 1.016.854.977 1.416 2.053z"/>
      <path fill="#252525" style="fill:var(--color6, #252525)" d="M24.84 16.528a1.745 1.745 0 0 1-1.248.465c-.382-1.044-1.04-1.96-1.635-2.9s-1.142-1.951-1.26-3.057c-.03-.281-.248-.53-.27-.813s.074-.592.311-.75.577-.119.828.03c.251.148.434.384.603.621 1.342 1.884 2.043 4.18 2.671 6.403z"/>
      <path fill="#fff" style="fill:var(--color3, #fff)" d="M21.987 13.002c-.052-.963-.115-1.968-.599-2.803-.106-.183-.243-.364-.44-.439-.866-.328-.346 1.158-.221 1.477a4.44 4.44 0 0 0 1.26 1.765z"/>
      <path fill="#6c63ff" style="fill:var(--color1, #6c63ff)" d="M20.301 9.679c-.14.448-.166.924-.078 1.385.251 1.292.671 2.671.84 3.976.387-1.817.106-3.885-.743-5.538a.968.968 0 0 1-.019.177z"/>
      <path style="fill:var(--color9, #000)" opacity=".4" d="M20.301 9.679c-.14.448-.166.924-.078 1.385.251 1.292.671 2.671.84 3.976.387-1.817.106-3.885-.743-5.538a.968.968 0 0 1-.019.177z"/>
      <path fill="#6c63ff" style="fill:var(--color1, #6c63ff)" d="M20.862 6.671s-.807.744-1.261.699-.252-.97-.252-.97 1.016-.09 1.514.271z"/>
      <path style="fill:var(--color9, #000)" opacity=".2" d="M20.862 6.671s-.807.744-1.261.699-.252-.97-.252-.97 1.016-.09 1.514.271z"/>
      <path fill="#f9b499" style="fill:var(--color7, #f9b499)" d="M19.419 10.441c.882-.508 1.05-1.864.376-3.029s-1.935-1.698-2.816-1.19c-.882.508-1.05 1.864-.376 3.029s1.935 1.698 2.816 1.19z"/>
      <path fill="#252525" style="fill:var(--color6, #252525)" d="m17.656 10.763-.023-.141a.445.445 0 0 0 .133.119l.007-.122c.022.023.05.04.081.049s.063.01.094.004a.565.565 0 0 0 .175-.075.376.376 0 0 0 .119-.094.127.127 0 0 0 .011-.141l.149.138-.084-.248.104.108c.034.04.076.072.123.094a.123.123 0 0 0 .141-.032c.047-.066-.012-.154-.072-.208a1.258 1.258 0 0 0-1.086-.28c-.069.015-.253.053-.287.123-.023.047.036.184.056.234.038.093.088.181.149.261.034.041.206.167.211.21zM16.972 7.572c.084.198.21.395.407.484.128.057.272.063.412.063.168 0 .336-.006.504-.018.235.255.436.523.567.843.128-.076.274-.175.402-.251-.132-.287-.244-.595-.376-.881.366.269.892.331 1.319.178-.279-.579-.63-1.118-1.086-1.569l-2.147 1.152z"/>
      <path fill="#f7b595" style="fill:var(--color10, #f7b595)" d="M19.046 8.04a2.297 2.297 0 0 1-.286-.512c-.04-.098.027-.229.072-.325A.358.358 0 0 1 19.064 7a.2.2 0 0 1 .138.037c.182.181.231.453.258.708a1.08 1.08 0 0 1 0 .311.398.398 0 0 1-.155.261 1.383 1.383 0 0 1-.259-.276z"/>
      <path fill="#6c63ff" style="fill:var(--color1, #6c63ff)" d="M19.599 6.574s.856-.038 1.263.097c0 0-.293-.562-1.627-.541s.364.444.364.444z"/>
      <path fill="#6c63ff" style="fill:var(--color1, #6c63ff)" d="M19.599 6.574c-1.46.184-2.84 1.258-3.263 2.665-.136-.047-.242-.177-.353-.269-.333-.277-.805-.489-.848-.92-.069-.693.105-1.385.277-2.059.422-.371.878-.817 1.431-.925.652-.127 1.307.15 1.913.422.231.104.413.307.556.509.026.037.311.575.287.579z"/>
      <path fill="#fff" style="fill:var(--color3, #fff)" opacity=".3" d="M19.599 6.574c-1.46.184-2.84 1.258-3.263 2.665-.136-.047-.242-.177-.353-.269-.333-.277-.805-.489-.848-.92-.069-.693.105-1.385.277-2.059.422-.371.878-.817 1.431-.925.652-.127 1.307.15 1.913.422.231.104.413.307.556.509.026.037.311.575.287.579z"/>
      <path fill="#6c63ff" style="fill:var(--color1, #6c63ff)" d="M18.756 5.487c-.606-.272-1.261-.549-1.913-.422-.288.056-.549.205-.793.386a4.087 4.087 0 0 0-.362.593c-.232.473-.35 1.018-.239 1.534.126.583.522 1.058.945 1.491.314-.867.993-1.593 1.818-2.041a14.424 14.424 0 0 0-.708-1.734c.411.156.82.315 1.227.477.205.082.411.166.607.268l-.025-.043c-.145-.202-.327-.405-.557-.509z"/>
      <path fill="#6c63ff" style="fill:var(--color1, #6c63ff)" d="M17.504 5.295c.273.562.51 1.141.708 1.734.43-.236.901-.39 1.387-.454.02-.003-.188-.4-.262-.535a6.696 6.696 0 0 0-.607-.268 89.146 89.146 0 0 0-1.226-.478z"/>
      <path style="fill:var(--color9, #000)" opacity=".2" d="M17.314 7.697c-.211-.448-.572-.806-.948-1.129-.159-.137-.337-.276-.546-.294-.17-.015-.369.058-.448.209.359.175.672.338.991.592.157.126.309.258.477.37.078.053.445.187.475.252z"/>
      <path fill="#6c63ff" style="fill:var(--color1, #6c63ff)" d="m15.984 8.97.134 1.084s.342-.414.42-1.323c0 0-.35.013-.554.239zM18.499 6.906a4.32 4.32 0 0 1-1.227.83c-.36-.351-.771-.777-1.238-.962a3.95 3.95 0 0 0-.368-.12l-.414-.118a1.762 1.762 0 0 1 .141-.769c.083-.196.323-.318.493-.446.378-.281 1.003-.343 1.473-.29.207.3 1.111 1.601 1.18 1.789-.001-.018-.038.106-.04.086z"/>
      <path fill="#fff" style="fill:var(--color3, #fff)" opacity=".3" d="M18.499 6.906a4.32 4.32 0 0 1-1.227.83c-.36-.351-.771-.777-1.238-.962a3.95 3.95 0 0 0-.368-.12l-.414-.118a1.762 1.762 0 0 1 .141-.769c.083-.196.323-.318.493-.446.378-.281 1.003-.343 1.473-.29.207.3 1.111 1.601 1.18 1.789-.001-.018-.038.106-.04.086z"/>
      <path fill="#6c63ff" style="fill:var(--color1, #6c63ff)" d="M17.361 5.033a2.426 2.426 0 0 0-.213-.015 2.643 2.643 0 0 0-.364.076c-.46.13-.892.406-1.137.816.351-.325.783-.55 1.251-.652-.479.318-.974.656-1.264 1.149.563.02.996.486 1.359.917.11.127.214.26.311.397a4.348 4.348 0 0 0 1.196-.815c0 .019.034-.087.04-.086-.073-.194-.972-1.487-1.179-1.787z"/>
      <path fill="#fff" style="fill:var(--color3, #fff)" d="M21.044 10.32c-.37-.1-.755-.143-1.137-.175l.224-2.684c.235-.024.46-.024.686.044.224.882.279 1.906.227 2.815z"/>
      <path fill="#402c35" style="fill:var(--color11, #402c35)" d="M20.614 8.628c-.019.45-.026.916.141 1.334s.557.78 1.009.778l-.601-2.688c-.039-.173-.079-.351-.17-.503-.191-.322-.438-.331-.395.067.031.337.037.675.017 1.012z"/>
      <path fill="#6c63ff" style="fill:var(--color1, #6c63ff)" d="M20.865 7.455c.075 1.04.083 2.083.022 3.124 1.353 1.474 2.375 3.208 3.072 5.083s1.148 3.829 1.596 5.777c1.092.123 2.051-.496 2.911-1.18s1.667-1.485 2.699-1.862c-.301-1.33-.602-2.707-1.119-3.968-.382-.927-.833-1.849-1.543-2.558-.645-.643-1.466-1.074-2.274-1.495-1.777-.925-3.588-1.995-5.364-2.921z"/>
      <path fill="#fff" style="fill:var(--color3, #fff)" opacity=".1" d="M30.045 14.429c-.382-.927-.833-1.849-1.543-2.558-.645-.643-1.466-1.074-2.274-1.495-1.775-.925-3.586-1.995-5.361-2.921.052.71.071 1.422.058 2.134l.405.65c.273.444.695.772 1.11 1.091.49.377.986.758 1.549 1.011.436.196.904.311 1.355.469a7.358 7.358 0 0 1 3.644 2.824c.416-.25.82-.517 1.213-.8a24.4 24.4 0 0 0-.156-.406z"/>
      <path fill="#252525" style="fill:var(--color6, #252525)" d="M22.869 13.045c.123-.098.133-.269.07-.403s-.185-.24-.304-.342c-.119-.102-.241-.21-.302-.344s-.047-.306.077-.402c.008-.006.018-.009.028-.009s.02.005.026.012c-.04.118-.081.247-.025.36.064.13.231.193.366.273.307.18.497.533.362.83a.211.211 0 0 1-.158.137c-.078.009-.198-.067-.14-.113z"/>
      <path fill="#6c63ff" style="fill:var(--color1, #6c63ff)" d="M22.21 13.316c.195.284.479.497.806.604a.6.6 0 0 0 .278.035c.047-.006.091-.025.129-.053s.067-.067.085-.111c.038-.113-.027-.234-.091-.335-.127-.2-.26-.396-.399-.588l-.809.447z"/>
      <path fill="#fff" style="fill:var(--color3, #fff)" opacity=".3" d="M22.21 13.316c.195.284.479.497.806.604a.6.6 0 0 0 .278.035c.047-.006.091-.025.129-.053s.067-.067.085-.111c.038-.113-.027-.234-.091-.335-.127-.2-.26-.396-.399-.588l-.809.447z"/>
      <path fill="#f9b499" style="fill:var(--color7, #f9b499)" d="M24.846 13.045c-.094.077-.417.215-.527.165-.087-.038-.101-.171-.196-.207-.18-.068-.399.082-.559.141-.144.052-.546-.018-.52.165.033.234.532.27.717.263-.221.091-.427.206-.647.286-.273-.11-.41-.261-.721-.223-.05.201.321.295.433.418.066.073.084.154.185.181.08.022.293 0 .376-.031.047.171.185.165.331.165.075 0 .108.101.18.12.059.016.133-.02.196-.015.349.024.538-.348.738-.466.137-.081.352-.234.497-.268-.054-.181-.473-.66-.484-.695z"/>
      <path fill="#fff" style="fill:var(--color3, #fff)" opacity=".3" d="m23.018 12.868-.809.447c.037.054.077.105.12.153.263-.154.532-.298.807-.432-.039-.056-.078-.113-.118-.168z"/>
      <path fill="#fff" style="fill:var(--color3, #fff)" d="M25.697 13.73c-.151.068-.323.156-.473.224-.171-.324-.349-.619-.521-.943l.492-.194c.189.291.313.624.502.913z"/>
      <path fill="#252525" style="fill:var(--color6, #252525)" d="M28.214 13.324a5.01 5.01 0 0 1-2.548.659c-.267-.387-.574-.746-.789-1.163.447-.313.876-.652 1.283-1.016.837.214 1.665.752 2.054 1.521z"/>
      <path fill="#6c63ff" style="fill:var(--color1, #6c63ff)" d="m30.712 14.094-.859-2.03c-.231-.547-.476-1.112-.919-1.507-.563-.5-1.35-.646-2.019-.997-1.013-.533-1.726-1.53-2.755-2.03-1.086-.528-2.334-.419-3.537-.31.465.888.063 2.019.444 2.945.258.627.848 1.069 1.482 1.312s1.319.308 1.994.383c.675.075 1.361.163 1.979.441 1.214.544 1.995 1.725 2.709 2.846.533-.243 1.102-.612 1.481-1.053z"/>
      <path style="fill:var(--color9, #000)" opacity=".4" d="m30.712 14.094-.859-2.03c-.231-.547-.476-1.112-.919-1.507-.563-.5-1.35-.646-2.019-.997-1.013-.533-1.726-1.53-2.755-2.03-1.086-.528-2.334-.419-3.537-.31.465.888.063 2.019.444 2.945.258.627.848 1.069 1.482 1.312s1.319.308 1.994.383c.675.075 1.361.163 1.979.441 1.214.544 1.995 1.725 2.709 2.846.533-.243 1.102-.612 1.481-1.053z"/>
      <path style="fill:var(--color9, #000)" opacity=".2" d="M21.964 10.403a4.99 4.99 0 0 0 1.016-.639c-.255-.216-.391-.538-.516-.848l-.73-1.781c-.369.015-.74.047-1.108.082.465.888.063 2.019.444 2.945.258.627.848 1.069 1.482 1.312.403.153.826.234 1.255.296-.685-.354-1.32-.782-1.843-1.367z"/>
      <path fill="#6c63ff" style="fill:var(--color1, #6c63ff)" d="M20.522 7.087c.02.793-.002 1.8.228 2.559s.68 1.279 1.389 1.64c-.265-.294-.383-.723-.393-1.118.276-.043.559-.197.771-.378-.376-.88-.704-1.818-.889-2.756l-1.105.053z"/>
      <path fill="#fff" style="fill:var(--color3, #fff)" opacity=".3" d="M20.522 7.087c.02.793-.002 1.8.228 2.559s.68 1.279 1.389 1.64c-.265-.294-.383-.723-.393-1.118.276-.043.559-.197.771-.378-.376-.88-.704-1.818-.889-2.756l-1.105.053z"/>
      <path style="fill:var(--color9, #000)" opacity=".2" d="M23.449 10.97c.841.131 1.685-.141 2.524-.284s1.798-.13 2.42.449c-.61-.149-1.336-.299-1.965-.256-.248.017-.492.064-.737.104-.756.124-1.524.254-2.243-.012zM27.561 10.23a2.478 2.478 0 0 0-1.12-.04c-.627.122-1.199.486-1.837.521.834-.158 1.73-.278 2.565-.437.138-.026.261-.097.392-.044zM29.07 13.75a5.42 5.42 0 0 0-1.57-1.731 2.685 2.685 0 0 1 1.57 1.731z"/>
      <path fill="#e5e5e5" style="fill:var(--color8, #e5e5e5)" opacity=".5" d="M13.333 14.374 8.188 28.343h11.241l-2.925-11.732-3.17-2.237z"/>
    </symbol>
    <symbol id="icon-logo" viewBox="0 0 32 32">
      <path fill="#6c63ff" style="fill:var(--color1, #6c63ff)" d="M0 0h32v32H0V0z"/>
      <path fill="#fff" style="fill:var(--color3, #fff)" d="M4.652 5.698H18.73v4.313h-.688l-.767-2.778c-.053-.212-.115-.362-.185-.45-.053-.106-.168-.168-.344-.185-.176-.035-.476-.053-.9-.053h-2.99v15.004c0 .617.026.979.079 1.085s.221.176.503.212l1.455.159v.688H8.516v-.688l1.455-.159c.282-.035.45-.106.503-.212s.079-.467.079-1.085V6.545H7.536c-.406 0-.706.018-.9.053-.176.018-.3.079-.37.185a1.784 1.784 0 0 0-.159.45l-.767 2.778h-.688V5.698z"/>
      <path fill="#fff" style="fill:var(--color3, #fff)" d="M13.27 11.336v-.714h7.515c2.152 0 3.802.697 4.948 2.09s1.72 3.361 1.72 5.901v1.985c0 2.558-.573 4.534-1.72 5.927s-2.796 2.09-4.948 2.09H13.27v-.688l1.455-.159c.282-.035.45-.106.503-.212s.079-.467.079-1.085V12.764c0-.617-.026-.979-.079-1.085s-.221-.176-.503-.212l-1.455-.132zm7.462.132H17.61v16.3h3.122c.953 0 1.738-.176 2.355-.529s1.076-.953 1.376-1.799c.318-.864.476-2.038.476-3.519V17.29c0-1.464-.159-2.62-.476-3.466-.3-.847-.759-1.447-1.376-1.799-.617-.37-1.402-.556-2.355-.556z"/>
    </symbol>
    <symbol id="icon-moon" viewBox="0 0 32 32">
      <path d="M16.182.798a1.603 1.603 0 0 1-.067 1.714 9.563 9.563 0 0 0-1.692 5.449c0 5.31 4.305 9.616 9.615 9.616a9.563 9.563 0 0 0 5.449-1.692 1.602 1.602 0 0 1 2.507 1.455c-.694 8.213-7.577 14.661-15.968 14.661C7.175 32.001 0 24.826 0 15.975 0 7.584 6.448.7 14.661.007A1.601 1.601 0 0 1 16.182.8zm-4.284 3.034C6.843 5.55 3.205 10.338 3.205 15.974c0 7.081 5.74 12.821 12.821 12.821 5.636 0 10.424-3.638 12.142-8.693a12.8 12.8 0 0 1-4.129.68c-7.081 0-12.821-5.74-12.821-12.821 0-1.444.239-2.833.68-4.129z"/>
    </symbol>
    <symbol id="icon-sun" viewBox="0 0 32 32">
      <path d="M17.684 1.684a1.684 1.684 0 0 0-3.368 0v.845a1.684 1.684 0 0 0 3.368 0v-.845zm9.63 5.384a1.685 1.685 0 0 0-2.381-2.381l-.598.598a1.683 1.683 0 1 0 2.381 2.381l.598-.598zM7.067 4.686a1.683 1.683 0 1 0-2.381 2.381l.598.598a1.683 1.683 0 1 0 2.381-2.381l-.598-.598zm-5.383 9.63a1.684 1.684 0 0 0 0 3.368h.845a1.684 1.684 0 0 0 0-3.368h-.845zm27.787 0a1.684 1.684 0 0 0 0 3.368h.846a1.684 1.684 0 0 0 0-3.368h-.846zm-21.806 12.4a1.683 1.683 0 1 0-2.381-2.381l-.598.598a1.683 1.683 0 1 0 2.381 2.381l.598-.598zm19.051-2.381a1.683 1.683 0 1 0-2.381 2.381l.598.598a1.684 1.684 0 1 0 2.382-2.381l-.598-.598zm-9.032 5.136a1.684 1.684 0 0 0-3.368 0v.846a1.684 1.684 0 0 0 3.368 0v-.846zM9.265 16a6.735 6.735 0 1 1 13.47 0 6.735 6.735 0 0 1-13.47 0zM16 5.897C10.42 5.897 5.897 10.42 5.897 16S10.42 26.103 16 26.103 26.103 21.58 26.103 16 21.58 5.897 16 5.897z"/>
    </symbol>
    <symbol id="icon-Rectangle-18" viewBox="0 0 32 32">
<path fill="#f7f7f7" style="fill: var(--color1, #f7f7f7)" d="M10.667 31.25l-2.987 3.046 3.046 2.987 2.987-3.046-3.046-2.988zM13.654 28.204l-10.662-10.456-5.975 6.092 10.662 10.456 5.975-6.093zM28.013 7.468l-20.393 20.795 6.093 5.975 20.393-20.795-6.093-5.975z"></path>
</symbol>
  </defs>
</svg>
